<svg width="365" height="90" viewBox="0 0 365 90" fill="none" xmlns="http://www.w3.org/2000/svg">
<path d="M310 2C310 1.44772 310.448 1 311 1H319C319.552 1 320 1.44772 320 2V10C320 10.5523 319.552 11 319 11H311C310.448 11 310 10.5523 310 10V2ZM310 22C310 21.4477 310.448 21 311 21H319C319.552 21 320 21.4477 320 22V70C320 70.5523 319.552 71 319 71H311C310.448 71 310 70.5523 310 70V22Z" fill="url(#paint0_linear)"/>
<path d="M335 20H347.5C349.9 20 352.167 20.4667 354.3 21.4C356.433 22.2667 358.3 23.5 359.9 25.1C361.5 26.7 362.733 28.5667 363.6 30.7C364.533 32.8333 365 35.1 365 37.5V53.5C365 55.9 364.533 58.1667 363.6 60.3C362.733 62.4333 361.5 64.3 359.9 65.9C358.3 67.5 356.433 68.7667 354.3 69.7C352.167 70.5667 349.9 71 347.5 71C345.033 71 342.7 70.5333 340.5 69.6C339.167 69.0167 337.951 68.3031 336.852 67.4594C336.137 66.9106 335 67.3876 335 68.2888V89C335 89.5523 334.552 90 334 90H326C325.448 90 325 89.5523 325 89V41C325 40.4477 325.448 40 326 40H334C334.552 40 335 40.4477 335 41V51C335 53.8 335.967 56.1667 337.9 58.1C339.833 60.0333 342.2 61 345 61C347.8 61 350.167 60.0333 352.1 58.1C354.033 56.1667 355 53.8 355 51V40C355 37.2 354.033 34.8333 352.1 32.9C350.167 30.9667 347.8 30 345 30H335V20Z" fill="url(#paint1_linear)"/>
<path d="M325 21C325 20.4477 325.448 20 326 20H335V30H326C325.448 30 325 29.5523 325 29V21Z" fill="url(#paint2_linear)"/>
<path d="M265 57C265 56.4477 265.448 56 266 56H274C274.552 56 275 56.4477 275 57V70C275 70.5523 274.552 71 274 71H266C265.448 71 265 70.5523 265 70V57Z" fill="url(#paint3_linear)"/>
<path d="M265 2C265 1.44771 265.448 1 266 1H274C274.552 1 275 1.44772 275 2V22.7112C275 23.6124 276.137 24.0894 276.852 23.5406C277.951 22.6969 279.167 21.9833 280.5 21.4C282.7 20.4667 285.033 20 287.5 20C289.9 20 292.167 20.4667 294.3 21.4C296.433 22.2667 298.3 23.5 299.9 25.1C301.5 26.7 302.733 28.5667 303.6 30.7C304.533 32.8333 305 35.1 305 37.5V70C305 70.5523 304.552 71 304 71H296C295.448 71 295 70.5523 295 70V40C295 37.2 294.033 34.8333 292.1 32.9C290.167 30.9667 287.8 30 285 30C282.2 30 279.833 30.9667 277.9 32.9C275.967 34.8333 275 37.2 275 40V50C275 50.5523 274.552 51 274 51H266C265.448 51 265 50.5523 265 50V2Z" fill="url(#paint4_linear)"/>
<path d="M225.409 57.2909C225.793 56.9067 226.412 56.9026 226.831 57.248C228.162 58.3438 229.751 59.2278 231.6 59.9C233.8 60.6333 236.933 61 241 61C247 61 250 59.1667 250 55.5C250 54.3 249.7 53.3667 249.1 52.7C248.567 51.9667 247.833 51.4333 246.9 51.1C245.967 50.7 244.9 50.4333 243.7 50.3C242.5 50.1667 241.3 50.0333 240.1 49.9C237.7 49.7 235.333 49.4 233 49C230.733 48.6 228.7 47.9 226.9 46.9C225.167 45.8333 223.733 44.3333 222.6 42.4C221.533 40.4 221 37.7667 221 34.5C221 29.5 222.567 25.6667 225.7 23C228.9 20.3333 233.5 19 239.5 19C244.167 19 247.967 19.6 250.9 20.8C253.477 21.8543 255.694 23.1917 257.551 24.8121C257.972 25.1796 257.976 25.824 257.581 26.2192L251.886 31.914C251.504 32.2962 250.89 32.3017 250.462 31.9704C249.453 31.1871 248.232 30.5303 246.8 30C245.067 29.3333 242.633 29 239.5 29C233.833 29 231 30.8333 231 34.5C231 35.6333 231.267 36.5667 231.8 37.3C232.4 37.9667 233.133 38.5 234 38.9C234.933 39.2333 235.967 39.5 237.1 39.7C238.3 39.8333 239.5 39.9333 240.7 40C243.033 40.2 245.333 40.5 247.6 40.9C249.933 41.3 252 42.0667 253.8 43.2C255.667 44.2667 257.167 45.8 258.3 47.8C259.433 49.7333 260 52.3 260 55.5C260 60.5 258.4 64.3333 255.2 67C252.067 69.6667 247.333 71 241 71C235.467 71 231 70.3667 227.6 69.1C224.553 67.905 221.934 66.3351 219.743 64.3903C219.326 64.0199 219.323 63.3771 219.717 62.9826L225.409 57.2909Z" fill="url(#paint5_linear)"/>
<path d="M118 34.5C118 30.8333 115.167 29 109.5 29C106.367 29 103.9 29.3333 102.1 30C100.367 30.6667 98.9333 31.5333 97.8 32.6L90.7 25.5C92.7 23.5667 95.1667 22 98.1 20.8C101.033 19.6 104.833 19 109.5 19C115.5 19 120.067 20.3333 123.2 23C126.4 25.6667 128 29.5 128 34.5V71H118V67.1C116.6 68.3 115 69.2667 113.2 70C111.467 70.6667 109.6 71 107.6 71H103.5C101.367 71 99.3333 70.6 97.4 69.8C95.5333 69 93.9 67.9 92.5 66.5C91.1 65.1 90 63.4667 89.2 61.6C88.4 59.6667 88 57.6333 88 55.5C88 53.3667 88.4 51.3667 89.2 49.5C90 47.5667 91.1 45.9 92.5 44.5C93.9 43.1 95.5333 42 97.4 41.2C99.3333 40.4 101.367 40 103.5 40H118V34.5ZM118 50H103.5C101.967 50 100.667 50.5333 99.6 51.6C98.5333 52.6667 98 53.9667 98 55.5C98 57.0333 98.5333 58.3333 99.6 59.4C100.667 60.4667 101.967 61 103.5 61H112.5C114.033 61 115.333 60.4667 116.4 59.4C117.467 58.3333 118 57.0333 118 55.5V50Z" fill="url(#paint6_linear)"/>
<path d="M30 34.5C30 30.8333 27.1667 29 21.5 29C18.3667 29 15.9 29.3333 14.1 30C12.3667 30.6667 10.9333 31.5333 9.8 32.6L2.7 25.5C4.7 23.5667 7.16667 22 10.1 20.8C13.0333 19.6 16.8333 19 21.5 19C27.5 19 32.0667 20.3333 35.2 23C38.4 25.6667 40 29.5 40 34.5V71H30V67.1C28.6 68.3 27 69.2667 25.2 70C23.4667 70.6667 21.6 71 19.6 71H15.5C13.3667 71 11.3333 70.6 9.4 69.8C7.53333 69 5.9 67.9 4.5 66.5C3.1 65.1 2 63.4667 1.2 61.6C0.4 59.6667 0 57.6333 0 55.5C0 53.3667 0.4 51.3667 1.2 49.5C2 47.5667 3.1 45.9 4.5 44.5C5.9 43.1 7.53333 42 9.4 41.2C11.3333 40.4 13.3667 40 15.5 40H30V34.5ZM30 50H15.5C13.9667 50 12.6667 50.5333 11.6 51.6C10.5333 52.6667 10 53.9667 10 55.5C10 57.0333 10.5333 58.3333 11.6 59.4C12.6667 60.4667 13.9667 61 15.5 61H24.5C26.0333 61 27.3333 60.4667 28.4 59.4C29.4667 58.3333 30 57.0333 30 55.5V50Z" fill="url(#paint7_linear)"/>
<path d="M64.3 49.7L55 61V71H45V1H55V45.3L75 21H88L71.1 41.5L88 71H76.5L64.3 49.7Z" fill="url(#paint8_linear)"/>
<path d="M173 71H163V65.8C161.4 67.4 159.533 68.6667 157.4 69.6C155.267 70.5333 152.967 71 150.5 71C148.1 71 145.833 70.5667 143.7 69.7C141.567 68.7667 139.7 67.5 138.1 65.9C136.5 64.3 135.233 62.4333 134.3 60.3C133.433 58.1667 133 55.9 133 53.5V36.5C133 34.1 133.433 31.8333 134.3 29.7C135.233 27.5667 136.5 25.7 138.1 24.1C139.7 22.5 141.567 21.2667 143.7 20.4C145.833 19.4667 148.1 19 150.5 19C152.967 19 155.267 19.4667 157.4 20.4C159.533 21.3333 161.4 22.6 163 24.2V0H173V71ZM143 51C143 53.8 143.967 56.1667 145.9 58.1C147.833 60.0333 150.2 61 153 61C155.8 61 158.167 60.0333 160.1 58.1C162.033 56.1667 163 53.8 163 51V39C163 36.2 162.033 33.8333 160.1 31.9C158.167 29.9667 155.8 29 153 29C150.2 29 147.833 29.9667 145.9 31.9C143.967 33.8333 143 36.2 143 39V51Z" fill="url(#paint9_linear)"/>
<path d="M197 61C199.133 61 201.133 60.6 203 59.8C204.933 59 206.633 57.9 208.1 56.5L215 63.7C212.667 65.9667 209.967 67.7667 206.9 69.1C203.833 70.3667 200.533 71 197 71C194.267 71 191.667 70.4667 189.2 69.4C186.8 68.3333 184.7 66.9 182.9 65.1C181.1 63.3 179.667 61.2 178.6 58.8C177.533 56.3333 177 53.7333 177 51V39C177 36.2667 177.533 33.7 178.6 31.3C179.667 28.8333 181.1 26.7 182.9 24.9C184.7 23.1 186.8 21.6667 189.2 20.6C191.667 19.5333 194.267 19 197 19C199.733 19 202.3 19.5333 204.7 20.6C207.167 21.6667 209.3 23.1 211.1 24.9C212.9 26.7 214.333 28.8333 215.4 31.3C216.467 33.7 217 36.2667 217 39V50H187V51C187 53.8 187.967 56.1667 189.9 58.1C191.833 60.0333 194.2 61 197 61ZM187 40H207V39C207 36.2 206.033 33.8333 204.1 31.9C202.167 29.9667 199.8 29 197 29C194.2 29 191.833 29.9667 189.9 31.9C187.967 33.8333 187 36.2 187 39V40Z" fill="url(#paint10_linear)"/>
<defs>
<linearGradient id="paint0_linear" x1="1.72048e-05" y1="-0.396038" x2="348.316" y2="132.875" gradientUnits="userSpaceOnUse">
<stop stop-color="#A42383"/>
<stop offset="1" stop-color="#583F98"/>
</linearGradient>
<linearGradient id="paint1_linear" x1="1.72048e-05" y1="-0.396038" x2="348.316" y2="132.875" gradientUnits="userSpaceOnUse">
<stop stop-color="#A42383"/>
<stop offset="1" stop-color="#583F98"/>
</linearGradient>
<linearGradient id="paint2_linear" x1="1.72048e-05" y1="-0.396038" x2="348.316" y2="132.875" gradientUnits="userSpaceOnUse">
<stop stop-color="#A42383"/>
<stop offset="1" stop-color="#583F98"/>
</linearGradient>
<linearGradient id="paint3_linear" x1="1.72048e-05" y1="-0.396038" x2="348.316" y2="132.875" gradientUnits="userSpaceOnUse">
<stop stop-color="#A42383"/>
<stop offset="1" stop-color="#583F98"/>
</linearGradient>
<linearGradient id="paint4_linear" x1="1.72048e-05" y1="-0.396038" x2="348.316" y2="132.875" gradientUnits="userSpaceOnUse">
<stop stop-color="#A42383"/>
<stop offset="1" stop-color="#583F98"/>
</linearGradient>
<linearGradient id="paint5_linear" x1="1.72048e-05" y1="-0.396038" x2="348.316" y2="132.875" gradientUnits="userSpaceOnUse">
<stop stop-color="#A42383"/>
<stop offset="1" stop-color="#583F98"/>
</linearGradient>
<linearGradient id="paint6_linear" x1="1.72048e-05" y1="-0.396038" x2="348.316" y2="132.875" gradientUnits="userSpaceOnUse">
<stop stop-color="#A42383"/>
<stop offset="1" stop-color="#583F98"/>
</linearGradient>
<linearGradient id="paint7_linear" x1="1.72048e-05" y1="-0.396038" x2="348.316" y2="132.875" gradientUnits="userSpaceOnUse">
<stop stop-color="#A42383"/>
<stop offset="1" stop-color="#583F98"/>
</linearGradient>
<linearGradient id="paint8_linear" x1="1.72048e-05" y1="-0.396038" x2="348.316" y2="132.875" gradientUnits="userSpaceOnUse">
<stop stop-color="#A42383"/>
<stop offset="1" stop-color="#583F98"/>
</linearGradient>
<linearGradient id="paint9_linear" x1="1.72048e-05" y1="-0.396038" x2="348.316" y2="132.875" gradientUnits="userSpaceOnUse">
<stop stop-color="#A42383"/>
<stop offset="1" stop-color="#583F98"/>
</linearGradient>
<linearGradient id="paint10_linear" x1="1.72048e-05" y1="-0.396038" x2="348.316" y2="132.875" gradientUnits="userSpaceOnUse">
<stop stop-color="#A42383"/>
<stop offset="1" stop-color="#583F98"/>
</linearGradient>
</defs>
</svg>
